# xmcd
#
# Track frame offsets:
#	150
#	11862
#	30241
#	51688
#	62624
#	75973
#	97058
#	109212
#	122550
#	137428
#	157897
#	176244
#	197341
#	207612
#	224604
#	241448
#	255374
#	273807
#	286972
#
# Disc length: 4297 seconds
#
# Revision: 1
# Processed by: cddbd v1.5.1PL0 Copyright (c) Steve Scherf et al.
# Submitted via: audiograbber 1.82.02
#
DISCID=0e10c713
DTITLE=Salty Dog - Lonesome Dog Blues
DYEAR=2001
DGENRE=Blues
TTITLE0=Mobile Line
TTITLE1=Depot Blues
TTITLE2=Lonesome Dog Blues
TTITLE3=Genuwine Moonshine
TTITLE4=Mudsteppin'
TTITLE5=Special Rider Blues
TTITLE6=Slap That Thing
TTITLE7=Candyman
TTITLE8=Got A Bad Feeling
TTITLE9=Atlanta Moan
TTITLE10=Cypress Grove
TTITLE11=Medley Heaven Sitting Down Pallett On Your Floor
TTITLE12=Kansas City Blues
TTITLE13=Mistreated Blues
TTITLE14=Brownsvile Blues
TTITLE15=Deep River Blues
TTITLE16=Charmin' Betsy
TTITLE17=Train To Jordan
TTITLE18=Medley Dark Was The Night Shake 'em On Down
EXTD=
EXTT0=
EXTT1=
EXTT2=
EXTT3=
EXTT4=
EXTT5=
EXTT6=
EXTT7=
EXTT8=
EXTT9=
EXTT10=
EXTT11=
EXTT12=
EXTT13=
EXTT14=
EXTT15=
EXTT16=
EXTT17=
EXTT18=
PLAYORDER=
